<?xml version="1.0" standalone="no"?>
<!DOCTYPE svg PUBLIC "-//W3C//DTD SVG 20010904//EN"
 "http://www.w3.org/TR/2001/REC-SVG-20010904/DTD/svg10.dtd">
<svg version="1.0" xmlns="http://www.w3.org/2000/svg"
 width="192.000000pt" height="192.000000pt" viewBox="0 0 192.000000 192.000000"
 preserveAspectRatio="xMidYMid meet">

<g transform="translate(0.000000,192.000000) scale(0.100000,-0.100000)"
fill="#000000" stroke="none">
<path d="M424 1301 c-42 -26 -69 -63 -94 -127 -22 -59 -27 -155 -10 -198 8
-22 6 -28 -11 -39 -40 -24 -62 -74 -57 -128 10 -100 83 -135 267 -126 140 6
195 21 476 129 271 103 351 129 401 130 56 1 68 -8 44 -32 -22 -22 -26 -70 -9
-103 16 -29 14 -28 33 -21 12 5 14 10 6 19 -7 9 -8 30 -2 62 l8 48 18 -34 c11
-20 15 -43 11 -58 -4 -16 -2 -22 5 -18 15 9 12 68 -5 91 -21 28 -18 34 14 34
36 0 92 -38 111 -75 22 -46 17 -108 -13 -154 -61 -92 -188 -103 -303 -25 -39
26 -39 26 -16 2 12 -14 43 -35 69 -48 149 -74 303 3 303 152 0 79 -69 158
-137 158 -21 0 -33 5 -33 14 0 16 -48 66 -64 66 -6 0 1 -12 17 -25 32 -29 38
-62 8 -45 -11 5 -41 10 -68 10 -49 0 -127 -25 -423 -135 -250 -93 -339 -116
-467 -122 -93 -5 -121 -3 -159 12 -94 36 -112 140 -36 209 21 18 22 18 48 -3
16 -12 41 -21 62 -21 30 0 44 8 85 51 47 48 49 50 43 23 -4 -16 -17 -38 -30
-49 -43 -37 -76 -95 -76 -137 0 -48 22 -59 55 -28 30 28 50 90 65 195 12 86
10 158 -3 120 -4 -11 -20 -44 -35 -74 -73 -144 -198 -107 -195 58 2 165 121
306 193 229 16 -18 20 -19 20 -5 0 37 -67 48 -116 18z m111 -408 c-10 -58 -42
-123 -59 -123 -35 0 -11 86 36 138 29 30 31 28 23 -15z m910 -33 c-11 -38 -14
-41 -14 -17 -1 27 16 73 24 65 2 -2 -2 -24 -10 -48z"/>
<path d="M1431 1204 c0 -11 3 -14 6 -6 3 7 2 16 -1 19 -3 4 -6 -2 -5 -13z"/>
<path d="M1389 1181 c-10 -11 -13 -24 -8 -37 4 -10 8 -14 8 -9 1 6 6 3 11 -5
6 -9 10 -10 10 -3 0 6 -5 15 -10 18 -6 4 -4 12 5 21 16 16 20 35 8 33 -5 0
-15 -9 -24 -18z"/>
<path d="M1323 1166 c-6 -8 -9 -16 -6 -19 9 -10 33 4 33 19 0 18 -11 17 -27 0z"/>
<path d="M1451 1149 c-1 -21 25 -44 34 -29 3 5 -1 10 -9 10 -8 0 -17 8 -19 18
-4 14 -5 14 -6 1z"/>
<path d="M1335 1120 c-11 -5 -14 -9 -7 -9 6 -1 12 -8 12 -16 0 -8 4 -15 9 -15
5 0 8 11 7 25 0 14 -1 25 -1 24 0 0 -9 -4 -20 -9z"/>
<path d="M637 1093 c-4 -3 -7 -11 -7 -17 0 -6 5 -5 12 2 6 6 9 14 7 17 -3 3
-9 2 -12 -2z"/>
<path d="M1420 1080 c0 -5 5 -10 10 -10 6 0 10 5 10 10 0 6 -4 10 -10 10 -5 0
-10 -4 -10 -10z"/>
<path d="M1450 1079 c0 -5 5 -7 10 -4 6 3 10 8 10 11 0 2 -4 4 -10 4 -5 0 -10
-5 -10 -11z"/>
<path d="M1370 1054 c0 -14 -3 -14 -15 -4 -12 10 -15 10 -15 -2 0 -21 37 -19
43 3 3 10 1 19 -4 19 -5 0 -9 -7 -9 -16z"/>
<path d="M602 1048 c-16 -16 -15 -43 3 -58 13 -10 23 -10 55 3 36 14 39 14 43
-2 2 -10 9 -2 21 24 l17 39 19 -32 c22 -36 52 -42 88 -16 20 14 23 14 29 -3 6
-16 8 -15 13 6 3 14 12 27 19 29 11 4 12 -2 7 -23 -6 -24 -5 -27 7 -16 12 9
16 8 21 -4 8 -22 37 -19 43 5 3 11 12 20 19 20 8 0 14 -9 14 -20 0 -20 28 -28
43 -13 4 4 30 7 57 7 27 1 55 7 62 14 10 10 6 10 -20 1 -39 -13 -62 -6 -62 20
0 20 -26 22 -77 6 -15 -5 -23 -3 -23 4 0 24 -18 9 -24 -20 -7 -35 -26 -30 -26
7 0 20 -5 24 -29 24 -15 0 -40 -9 -54 -20 -39 -31 -69 -30 -85 3 -13 28 -36
35 -47 16 -4 -6 -13 -8 -21 -5 -8 3 -14 -1 -14 -10 0 -17 -57 -44 -77 -37 -18
7 -16 28 2 43 13 11 14 10 9 -4 -5 -12 -2 -15 10 -10 9 4 15 12 13 18 -5 16
-40 19 -55 4z m478 -14 c0 -13 -21 -44 -30 -44 -15 0 -12 37 3 43 17 8 27 8
27 1z"/>
<path d="M1310 1050 c0 -5 5 -10 10 -10 6 0 10 5 10 10 0 6 -4 10 -10 10 -5 0
-10 -4 -10 -10z"/>
<path d="M1290 1027 c0 -2 9 -14 20 -27 11 -13 20 -18 20 -12 0 6 -5 14 -10
17 -6 4 -8 11 -5 16 4 5 -1 9 -9 9 -9 0 -16 -2 -16 -3z"/>
<path d="M1355 980 c3 -5 8 -10 11 -10 2 0 4 5 4 10 0 6 -5 10 -11 10 -5 0 -7
-4 -4 -10z"/>
</g>
</svg>
